<svg width="86" height="88" viewBox="0 0 86 88" fill="none" xmlns="http://www.w3.org/2000/svg">
<path fill-rule="evenodd" clip-rule="evenodd" d="M23.2324 15.8551C22.4998 16.8393 20.9239 20.1906 20.1651 21.894L72.8615 43.999C73.5463 42.2611 74.8439 38.7622 75.0233 37.5803C76.2021 30.8767 73.0854 24.9233 66.6487 21.531L40.5507 10.5835C33.5746 8.31494 27.2122 10.2611 23.2324 15.8551ZM10.8023 44.1866L20.1551 21.8904L72.8718 44.0039L63.444 66.4788C59.5877 75.672 51.4299 78.897 42.1712 75.0132L19.5164 65.5099C10.3445 61.6625 6.92014 53.4413 10.8023 44.1866Z" fill="url(#paint0_linear_142_80)"/>
<g opacity="0.5" filter="url(#filter0_f_142_80)">
<path d="M55.0136 26.3819L40.3976 20.4824C35.096 18.3425 30.6479 20.4695 28.3152 26.2488L20.4145 45.8228C18.0436 51.6968 19.7995 56.2398 25.1011 58.3797L39.7171 64.2791C45.1041 66.4535 49.4345 64.3672 51.8054 58.4931L59.7061 38.9191C62.0388 33.1398 60.4006 28.5562 55.0136 26.3819Z" fill="#EB6F0A"/>
</g>
<g filter="url(#filter1_b_142_80)">
<mask id="path-3-outside-1_142_80" maskUnits="userSpaceOnUse" x="25.0894" y="25.2128" width="60" height="61" fill="black">
<rect fill="white" x="25.0894" y="25.2128" width="60" height="61"/>
<path fill-rule="evenodd" clip-rule="evenodd" d="M26.5926 37.7732C26.2977 38.9642 26.1408 42.6641 26.1 44.5284H83.2449C83.2042 42.661 83.0473 38.9324 82.7555 37.7732C81.2494 31.1355 76.0724 26.8511 68.8246 26.2128H40.5235C33.2129 26.8194 28.0986 31.0751 26.5926 37.7732ZM26.0894 44.529V68.7074C26.0894 78.7434 32.4273 85 42.3735 85H66.9408C76.9811 85 83.2563 78.8704 83.2563 68.9012V44.529H26.0894ZM39.1417 58.3571C39.2044 59.8149 40.3967 60.9614 41.84 60.8947C43.2519 60.8343 44.3814 59.6275 44.3187 58.1634C44.2873 56.7374 43.1264 55.6226 41.7145 55.6226C40.2712 55.6893 39.1417 56.8962 39.1417 58.3571ZM52.0373 58.3571C52.1001 59.8149 53.2923 60.9614 54.7356 60.8947C56.1475 60.8343 57.2771 59.6275 57.2143 58.1634C57.183 56.7374 56.022 55.6226 54.6101 55.6226C53.1668 55.6893 52.0373 56.8962 52.0373 58.3571ZM64.9328 69.8826C64.9328 71.3435 66.0937 72.5504 67.537 72.5821C69.0117 72.5821 70.204 71.3753 70.204 69.8826C70.204 68.3931 69.0117 67.1862 67.537 67.1862H67.5056C66.0623 67.218 64.9014 68.4217 64.9328 69.8826ZM54.7356 72.4234C53.2923 72.4901 52.1001 71.3436 52.0373 69.8827C52.0373 68.4217 53.1668 67.218 54.6101 67.1513C56.022 67.1513 57.183 68.2661 57.2143 69.6953C57.2771 71.1562 56.1475 72.3631 54.7356 72.4234ZM41.8086 72.4234C40.3653 72.4901 39.173 71.3436 39.1103 69.8827C39.1103 68.4217 40.2398 67.218 41.6831 67.1513C43.095 67.1513 44.2559 68.2661 44.2873 69.6953C44.3501 71.1562 43.2205 72.3631 41.8086 72.4234ZM67.5368 55.6576C66.0935 55.6893 64.964 56.8644 64.964 58.3254V58.3571C64.9954 59.8149 66.1877 60.9265 67.631 60.8947C69.0429 60.8661 70.1724 59.6593 70.141 58.1983C70.0783 56.7977 68.9488 55.6576 67.5368 55.6576Z"/>
</mask>
<path fill-rule="evenodd" clip-rule="evenodd" d="M26.5926 37.7732C26.2977 38.9642 26.1408 42.6641 26.1 44.5284H83.2449C83.2042 42.661 83.0473 38.9324 82.7555 37.7732C81.2494 31.1355 76.0724 26.8511 68.8246 26.2128H40.5235C33.2129 26.8194 28.0986 31.0751 26.5926 37.7732ZM26.0894 44.529V68.7074C26.0894 78.7434 32.4273 85 42.3735 85H66.9408C76.9811 85 83.2563 78.8704 83.2563 68.9012V44.529H26.0894ZM39.1417 58.3571C39.2044 59.8149 40.3967 60.9614 41.84 60.8947C43.2519 60.8343 44.3814 59.6275 44.3187 58.1634C44.2873 56.7374 43.1264 55.6226 41.7145 55.6226C40.2712 55.6893 39.1417 56.8962 39.1417 58.3571ZM52.0373 58.3571C52.1001 59.8149 53.2923 60.9614 54.7356 60.8947C56.1475 60.8343 57.2771 59.6275 57.2143 58.1634C57.183 56.7374 56.022 55.6226 54.6101 55.6226C53.1668 55.6893 52.0373 56.8962 52.0373 58.3571ZM64.9328 69.8826C64.9328 71.3435 66.0937 72.5504 67.537 72.5821C69.0117 72.5821 70.204 71.3753 70.204 69.8826C70.204 68.3931 69.0117 67.1862 67.537 67.1862H67.5056C66.0623 67.218 64.9014 68.4217 64.9328 69.8826ZM54.7356 72.4234C53.2923 72.4901 52.1001 71.3436 52.0373 69.8827C52.0373 68.4217 53.1668 67.218 54.6101 67.1513C56.022 67.1513 57.183 68.2661 57.2143 69.6953C57.2771 71.1562 56.1475 72.3631 54.7356 72.4234ZM41.8086 72.4234C40.3653 72.4901 39.173 71.3436 39.1103 69.8827C39.1103 68.4217 40.2398 67.218 41.6831 67.1513C43.095 67.1513 44.2559 68.2661 44.2873 69.6953C44.3501 71.1562 43.2205 72.3631 41.8086 72.4234ZM67.5368 55.6576C66.0935 55.6893 64.964 56.8644 64.964 58.3254V58.3571C64.9954 59.8149 66.1877 60.9265 67.631 60.8947C69.0429 60.8661 70.1724 59.6593 70.141 58.1983C70.0783 56.7977 68.9488 55.6576 67.5368 55.6576Z" fill="#FFCBB9" fill-opacity="0.35"/>
<path d="M26.1 44.5284L25.1002 44.5065C25.0943 44.7755 25.1971 45.0355 25.3852 45.2277C25.5733 45.42 25.831 45.5284 26.1 45.5284V44.5284ZM26.5926 37.7732L27.5633 38.0136C27.565 38.0066 27.5667 37.9996 27.5682 37.9926L26.5926 37.7732ZM83.2449 44.5284V45.5284C83.514 45.5284 83.7716 45.42 83.9597 45.2278C84.1479 45.0355 84.2506 44.7755 84.2447 44.5066L83.2449 44.5284ZM82.7555 37.7732L81.7803 37.9945C81.782 38.0021 81.7838 38.0097 81.7857 38.0173L82.7555 37.7732ZM68.8246 26.2128L68.9123 25.2166C68.8831 25.2141 68.8539 25.2128 68.8246 25.2128V26.2128ZM40.5235 26.2128V25.2128C40.4959 25.2128 40.4683 25.2139 40.4408 25.2162L40.5235 26.2128ZM26.0894 44.529V43.529C25.5371 43.529 25.0894 43.9767 25.0894 44.529H26.0894ZM83.2563 44.529H84.2563C84.2563 43.9767 83.8086 43.529 83.2563 43.529V44.529ZM41.84 60.8947L41.7973 59.8956L41.7938 59.8958L41.84 60.8947ZM39.1417 58.3571H38.1417C38.1417 58.3715 38.142 58.3858 38.1426 58.4001L39.1417 58.3571ZM44.3187 58.1634L43.3189 58.1854C43.3191 58.1923 43.3193 58.1993 43.3196 58.2062L44.3187 58.1634ZM41.7145 55.6226V54.6226C41.6991 54.6226 41.6837 54.623 41.6683 54.6237L41.7145 55.6226ZM54.7356 60.8947L54.6929 59.8956L54.6895 59.8958L54.7356 60.8947ZM52.0373 58.3571H51.0373C51.0373 58.3715 51.0376 58.3858 51.0382 58.4001L52.0373 58.3571ZM57.2143 58.1634L56.2146 58.1854C56.2147 58.1923 56.215 58.1993 56.2152 58.2062L57.2143 58.1634ZM54.6101 55.6226V54.6226C54.5947 54.6226 54.5793 54.623 54.564 54.6237L54.6101 55.6226ZM67.537 72.5821L67.515 73.5819C67.5223 73.5821 67.5297 73.5821 67.537 73.5821V72.5821ZM64.9328 69.8826H65.9328C65.9328 69.8754 65.9327 69.8683 65.9326 69.8611L64.9328 69.8826ZM67.5056 67.1862V66.1862C67.4983 66.1862 67.491 66.1863 67.4836 66.1865L67.5056 67.1862ZM52.0373 69.8827H51.0373C51.0373 69.897 51.0376 69.9113 51.0382 69.9256L52.0373 69.8827ZM54.7356 72.4234L54.6929 71.4243L54.6895 71.4245L54.7356 72.4234ZM54.6101 67.1513V66.1513C54.5947 66.1513 54.5793 66.1517 54.564 66.1524L54.6101 67.1513ZM57.2143 69.6953L56.2146 69.7172C56.2147 69.7242 56.215 69.7312 56.2153 69.7382L57.2143 69.6953ZM39.1103 69.8827H38.1103C38.1103 69.897 38.1106 69.9113 38.1112 69.9256L39.1103 69.8827ZM41.8086 72.4234L41.7659 71.4243L41.7624 71.4245L41.8086 72.4234ZM41.6831 67.1513V66.1513C41.6677 66.1513 41.6523 66.1517 41.6369 66.1524L41.6831 67.1513ZM44.2873 69.6953L43.2875 69.7172C43.2877 69.7242 43.2879 69.7312 43.2882 69.7382L44.2873 69.6953ZM67.5368 55.6576V54.6576C67.5295 54.6576 67.5222 54.6577 67.5148 54.6578L67.5368 55.6576ZM64.964 58.3571H63.964C63.964 58.3643 63.9641 58.3715 63.9642 58.3786L64.964 58.3571ZM67.631 60.8947L67.6107 59.8949L67.609 59.8949L67.631 60.8947ZM70.141 58.1983L71.1408 58.1769C71.1407 58.1691 71.1404 58.1613 71.14 58.1536L70.141 58.1983ZM27.0998 44.5503C27.1199 43.6286 27.1689 42.2512 27.2491 40.9603C27.3316 39.632 27.4417 38.5046 27.5633 38.0136L25.6219 37.5328C25.4486 38.2328 25.3328 39.5508 25.2529 40.8363C25.1707 42.1592 25.1209 43.5639 25.1002 44.5065L27.0998 44.5503ZM83.2449 43.5284H26.1V45.5284H83.2449V43.5284ZM81.7857 38.0173C81.9046 38.4894 82.014 39.6123 82.0962 40.9468C82.1761 42.2414 82.225 43.6269 82.2452 44.5503L84.2447 44.5066C84.2241 43.5625 84.1742 42.15 84.0925 40.8237C84.0131 39.5372 83.8982 38.2162 83.7252 37.5291L81.7857 38.0173ZM68.7368 27.2089C75.5945 27.8129 80.3795 31.8206 81.7803 37.9945L83.7307 37.5519C82.1194 30.4503 76.5503 25.8894 68.9123 25.2166L68.7368 27.2089ZM40.5235 27.2128H68.8246V25.2128H40.5235V27.2128ZM27.5682 37.9926C28.9701 31.7576 33.6923 27.783 40.6062 27.2093L40.4408 25.2162C32.7335 25.8557 27.2271 30.3926 25.617 37.5538L27.5682 37.9926ZM27.0894 68.7074V44.529H25.0894V68.7074H27.0894ZM42.3735 84C37.6126 84 33.8138 82.5068 31.2076 79.909C28.6019 77.3117 27.0894 73.5116 27.0894 68.7074H25.0894C25.0894 73.9392 26.7458 78.2854 29.7956 81.3254C32.8449 84.3649 37.1881 86 42.3735 86V84ZM66.9408 84H42.3735V86H66.9408V84ZM82.2563 68.9012C82.2563 73.6724 80.7594 77.4208 78.1623 79.9763C75.5632 82.5337 71.7567 84 66.9408 84V86C72.1652 86 76.5164 84.4016 79.565 81.4019C82.6156 78.4002 84.2563 74.0992 84.2563 68.9012H82.2563ZM82.2563 44.529V68.9012H84.2563V44.529H82.2563ZM26.0894 45.529H83.2563V43.529H26.0894V45.529ZM41.7938 59.8958C40.9359 59.9354 40.1811 59.2519 40.1407 58.3141L38.1426 58.4001C38.2277 60.3779 39.8575 61.9874 41.8862 61.8936L41.7938 59.8958ZM43.3196 58.2062C43.3588 59.1202 42.6557 59.8589 41.7973 59.8956L41.8827 61.8938C43.8482 61.8098 45.4041 60.1348 45.3178 58.1206L43.3196 58.2062ZM41.7145 56.6226C42.5897 56.6226 43.2997 57.31 43.3189 58.1854L45.3184 58.1414C45.275 56.1648 43.6631 54.6226 41.7145 54.6226V56.6226ZM40.1417 58.3571C40.1417 57.4154 40.8661 56.6629 41.7607 56.6216L41.6683 54.6237C39.6763 54.7157 38.1417 56.377 38.1417 58.3571H40.1417ZM54.6895 59.8958C53.8315 59.9354 53.0767 59.2519 53.0364 58.3141L51.0382 58.4001C51.1234 60.3779 52.7531 61.9874 54.7818 61.8936L54.6895 59.8958ZM56.2152 58.2062C56.2544 59.1202 55.5513 59.8589 54.6929 59.8956L54.7783 61.8938C56.7438 61.8098 58.2997 60.1348 58.2134 58.1206L56.2152 58.2062ZM54.6101 56.6226C55.4854 56.6226 56.1953 57.31 56.2146 58.1854L58.2141 58.1414C58.1706 56.1648 56.5587 54.6226 54.6101 54.6226V56.6226ZM53.0373 58.3571C53.0373 57.4154 53.7617 56.6629 54.6563 56.6216L54.564 54.6237C52.5719 54.7157 51.0373 56.377 51.0373 58.3571H53.0373ZM67.559 71.5824C66.6731 71.5629 65.9328 70.8137 65.9328 69.8826H63.9328C63.9328 71.8734 65.5144 73.5379 67.515 73.5819L67.559 71.5824ZM69.204 69.8826C69.204 70.8345 68.448 71.5821 67.537 71.5821V73.5821C69.5754 73.5821 71.204 71.9161 71.204 69.8826H69.204ZM67.537 68.1862C68.4487 68.1862 69.204 68.9347 69.204 69.8826H71.204C71.204 67.8515 69.5746 66.1862 67.537 66.1862V68.1862ZM67.5056 68.1862H67.537V66.1862H67.5056V68.1862ZM65.9326 69.8611C65.9131 68.9521 66.6364 68.2056 67.5276 68.186L67.4836 66.1865C65.4883 66.2304 63.8898 67.8913 63.933 69.9041L65.9326 69.8611ZM51.0382 69.9256C51.1233 71.9058 52.7524 73.5161 54.7818 73.4223L54.6895 71.4245C53.8323 71.4641 53.0768 70.7814 53.0364 69.8397L51.0382 69.9256ZM54.564 66.1524C52.5734 66.2444 51.0373 67.901 51.0373 69.8827H53.0373C53.0373 68.9424 53.7603 68.1917 54.6563 68.1503L54.564 66.1524ZM58.2141 69.6733C58.1706 67.6943 56.5595 66.1513 54.6101 66.1513V68.1513C55.4846 68.1513 56.1953 68.8379 56.2146 69.7172L58.2141 69.6733ZM54.7783 73.4225C56.743 73.3385 58.2998 71.6643 58.2134 69.6524L56.2153 69.7382C56.2543 70.6481 55.5521 71.3876 54.6929 71.4243L54.7783 73.4225ZM38.1112 69.9256C38.1962 71.9058 39.8254 73.5161 41.8548 73.4223L41.7624 71.4245C40.9053 71.4641 40.1498 70.7814 40.1093 69.8397L38.1112 69.9256ZM41.6369 66.1524C39.6464 66.2444 38.1103 67.901 38.1103 69.8827H40.1103C40.1103 68.9424 40.8332 68.1917 41.7293 68.1503L41.6369 66.1524ZM45.2871 69.6733C45.2436 67.6943 43.6325 66.1513 41.6831 66.1513V68.1513C42.5576 68.1513 43.2682 68.8379 43.2875 69.7172L45.2871 69.6733ZM41.8513 73.4225C43.816 73.3385 45.3728 71.6643 45.2864 69.6524L43.2882 69.7382C43.3273 70.6481 42.6251 71.3876 41.7659 71.4243L41.8513 73.4225ZM65.964 58.3254C65.964 57.3939 66.6733 56.6768 67.5588 56.6573L67.5148 54.6578C65.5138 54.7018 63.964 56.335 63.964 58.3254H65.964ZM65.964 58.3571V58.3254H63.964V58.3571H65.964ZM67.609 59.8949C66.7063 59.9148 65.983 59.2293 65.9638 58.3356L63.9642 58.3786C64.0078 60.4004 65.6691 61.9381 67.653 61.8945L67.609 59.8949ZM69.1413 58.2198C69.1614 59.1548 68.4436 59.878 67.6107 59.8949L67.6512 61.8945C69.6422 61.8542 71.1835 60.1637 71.1408 58.1769L69.1413 58.2198ZM67.5368 56.6576C68.386 56.6576 69.102 57.3485 69.1421 58.2431L71.14 58.1536C71.0546 56.247 69.5116 54.6576 67.5368 54.6576V56.6576Z" fill="url(#paint1_linear_142_80)" mask="url(#path-3-outside-1_142_80)"/>
</g>
<g filter="url(#filter2_bd_142_80)">
<mask id="path-5-inside-2_142_80" fill="white">
<path fill-rule="evenodd" clip-rule="evenodd" d="M45.3534 33.6129C45.3534 35.0135 44.318 36.0583 42.9374 36.0583C41.5569 36.0583 40.5215 35.0135 40.5215 33.6129V23.9294C40.5215 22.5288 41.5569 21.4808 42.9374 21.4808C44.318 21.4808 45.3534 22.5288 45.3534 23.9294V33.6129ZM68.8235 33.6129C68.8235 35.0135 67.7567 36.0583 66.4076 36.0583C65.027 36.0583 63.9916 35.0135 63.9916 33.6129V23.9294C63.9916 22.5288 65.027 21.4808 66.4076 21.4808C67.7567 21.4808 68.8235 22.5288 68.8235 23.9294V33.6129Z"/>
</mask>
<path fill-rule="evenodd" clip-rule="evenodd" d="M45.3534 33.6129C45.3534 35.0135 44.318 36.0583 42.9374 36.0583C41.5569 36.0583 40.5215 35.0135 40.5215 33.6129V23.9294C40.5215 22.5288 41.5569 21.4808 42.9374 21.4808C44.318 21.4808 45.3534 22.5288 45.3534 23.9294V33.6129ZM68.8235 33.6129C68.8235 35.0135 67.7567 36.0583 66.4076 36.0583C65.027 36.0583 63.9916 35.0135 63.9916 33.6129V23.9294C63.9916 22.5288 65.027 21.4808 66.4076 21.4808C67.7567 21.4808 68.8235 22.5288 68.8235 23.9294V33.6129Z" fill="url(#paint2_linear_142_80)"/>
<path d="M42.9374 36.4583C44.5431 36.4583 45.7534 35.2301 45.7534 33.6129H44.9534C44.9534 34.7968 44.0928 35.6583 42.9374 35.6583V36.4583ZM40.1215 33.6129C40.1215 35.2301 41.3318 36.4583 42.9374 36.4583V35.6583C41.782 35.6583 40.9215 34.7968 40.9215 33.6129H40.1215ZM40.1215 23.9294V33.6129H40.9215V23.9294H40.1215ZM42.9374 21.0808C41.3311 21.0808 40.1215 22.3129 40.1215 23.9294H40.9215C40.9215 22.7448 41.7827 21.8808 42.9374 21.8808V21.0808ZM45.7534 23.9294C45.7534 22.3129 44.5438 21.0808 42.9374 21.0808V21.8808C44.0922 21.8808 44.9534 22.7448 44.9534 23.9294H45.7534ZM45.7534 33.6129V23.9294H44.9534V33.6129H45.7534ZM66.4076 36.4583C67.9785 36.4583 69.2235 35.2335 69.2235 33.6129H68.4235C68.4235 34.7934 67.535 35.6583 66.4076 35.6583V36.4583ZM63.5916 33.6129C63.5916 35.2301 64.8019 36.4583 66.4076 36.4583V35.6583C65.2522 35.6583 64.3916 34.7968 64.3916 33.6129H63.5916ZM63.5916 23.9294V33.6129H64.3916V23.9294H63.5916ZM66.4076 21.0808C64.8012 21.0808 63.5916 22.3129 63.5916 23.9294H64.3916C64.3916 22.7448 65.2529 21.8808 66.4076 21.8808V21.0808ZM69.2235 23.9294C69.2235 22.3094 67.9792 21.0808 66.4076 21.0808V21.8808C67.5343 21.8808 68.4235 22.7482 68.4235 23.9294H69.2235ZM69.2235 33.6129V23.9294H68.4235V33.6129H69.2235Z" fill="url(#paint3_linear_142_80)" mask="url(#path-5-inside-2_142_80)"/>
</g>
<g filter="url(#filter3_bd_142_80)">
<mask id="path-7-inside-3_142_80" fill="white">
<path fill-rule="evenodd" clip-rule="evenodd" d="M39.1708 58.386C39.2335 59.8437 40.4258 60.9902 41.8691 60.9236C43.281 60.8632 44.4105 59.6564 44.3478 58.1922C44.3164 56.7662 43.1555 55.6515 41.7436 55.6515C40.3003 55.7182 39.1708 56.925 39.1708 58.386ZM52.0657 58.386C52.1285 59.8437 53.3208 60.9902 54.764 60.9236C56.176 60.8632 57.3055 59.6564 57.2427 58.1922C57.2114 56.7662 56.0505 55.6515 54.6385 55.6515C53.1952 55.7182 52.0657 56.925 52.0657 58.386ZM64.9612 69.9113C64.9612 71.3723 66.1221 72.5791 67.5654 72.6109C69.0401 72.6109 70.2324 71.404 70.2324 69.9113C70.2324 68.4218 69.0401 67.215 67.5654 67.215H67.534C66.0907 67.2467 64.9298 68.4504 64.9612 69.9113ZM54.764 72.4523C53.3208 72.519 52.1285 71.3725 52.0657 69.9116C52.0657 68.4506 53.1952 67.247 54.6385 67.1803C56.0505 67.1803 57.2114 68.295 57.2427 69.7242C57.3055 71.1851 56.176 72.392 54.764 72.4523ZM41.837 72.4523C40.3937 72.519 39.2014 71.3725 39.1387 69.9116C39.1387 68.4506 40.2682 67.247 41.7115 67.1803C43.1234 67.1803 44.2843 68.295 44.3157 69.7242C44.3784 71.1851 43.2489 72.392 41.837 72.4523ZM67.5653 55.6865C66.122 55.7183 64.9924 56.8934 64.9924 58.3543V58.386C65.0238 59.8438 66.2161 60.9554 67.6594 60.9236C69.0713 60.895 70.2008 59.6882 70.1695 58.2273C70.1067 56.8267 68.9772 55.6865 67.5653 55.6865Z"/>
</mask>
<path fill-rule="evenodd" clip-rule="evenodd" d="M39.1708 58.386C39.2335 59.8437 40.4258 60.9902 41.8691 60.9236C43.281 60.8632 44.4105 59.6564 44.3478 58.1922C44.3164 56.7662 43.1555 55.6515 41.7436 55.6515C40.3003 55.7182 39.1708 56.925 39.1708 58.386ZM52.0657 58.386C52.1285 59.8437 53.3208 60.9902 54.764 60.9236C56.176 60.8632 57.3055 59.6564 57.2427 58.1922C57.2114 56.7662 56.0505 55.6515 54.6385 55.6515C53.1952 55.7182 52.0657 56.925 52.0657 58.386ZM64.9612 69.9113C64.9612 71.3723 66.1221 72.5791 67.5654 72.6109C69.0401 72.6109 70.2324 71.404 70.2324 69.9113C70.2324 68.4218 69.0401 67.215 67.5654 67.215H67.534C66.0907 67.2467 64.9298 68.4504 64.9612 69.9113ZM54.764 72.4523C53.3208 72.519 52.1285 71.3725 52.0657 69.9116C52.0657 68.4506 53.1952 67.247 54.6385 67.1803C56.0505 67.1803 57.2114 68.295 57.2427 69.7242C57.3055 71.1851 56.176 72.392 54.764 72.4523ZM41.837 72.4523C40.3937 72.519 39.2014 71.3725 39.1387 69.9116C39.1387 68.4506 40.2682 67.247 41.7115 67.1803C43.1234 67.1803 44.2843 68.295 44.3157 69.7242C44.3784 71.1851 43.2489 72.392 41.837 72.4523ZM67.5653 55.6865C66.122 55.7183 64.9924 56.8934 64.9924 58.3543V58.386C65.0238 59.8438 66.2161 60.9554 67.6594 60.9236C69.0713 60.895 70.2008 59.6882 70.1695 58.2273C70.1067 56.8267 68.9772 55.6865 67.5653 55.6865Z" fill="url(#paint4_linear_142_80)"/>
<path d="M41.8691 60.9236L41.852 60.5239L41.8506 60.524L41.8691 60.9236ZM39.1708 58.386H38.7708V58.3946L38.7711 58.4032L39.1708 58.386ZM44.3478 58.1922L43.9478 58.201L43.9482 58.2094L44.3478 58.1922ZM41.7436 55.6515V55.2515H41.7344L41.7251 55.2519L41.7436 55.6515ZM54.764 60.9236L54.747 60.5239L54.7456 60.524L54.764 60.9236ZM52.0657 58.386H51.6657V58.3946L51.6661 58.4032L52.0657 58.386ZM57.2427 58.1922L56.8428 58.201L56.8431 58.2094L57.2427 58.1922ZM54.6385 55.6515V55.2515H54.6293L54.6201 55.2519L54.6385 55.6515ZM67.5654 72.6109L67.5566 73.0109H67.5654V72.6109ZM64.9612 69.9113H65.3613L65.3611 69.9027L64.9612 69.9113ZM67.534 67.215V66.8149L67.5252 66.815L67.534 67.215ZM52.0657 69.9116H51.6657V69.9202L51.6661 69.9287L52.0657 69.9116ZM54.764 72.4523L54.747 72.0527L54.7456 72.0527L54.764 72.4523ZM54.6385 67.1803V66.7803H54.6293L54.6201 66.7807L54.6385 67.1803ZM57.2427 69.7242L56.8427 69.733L56.8431 69.7414L57.2427 69.7242ZM39.1387 69.9116H38.7387V69.9202L38.739 69.9287L39.1387 69.9116ZM41.837 72.4523L41.8199 72.0527L41.8185 72.0527L41.837 72.4523ZM41.7115 67.1803V66.7803H41.7023L41.693 66.7807L41.7115 67.1803ZM44.3157 69.7242L43.9157 69.733L43.9161 69.7414L44.3157 69.7242ZM67.5653 55.6865V55.2864L67.5565 55.2866L67.5653 55.6865ZM64.9924 58.386H64.5924L64.5925 58.3947L64.9924 58.386ZM67.6594 60.9236L67.6513 60.5237L67.6506 60.5237L67.6594 60.9236ZM70.1695 58.2273L70.5695 58.2187L70.5691 58.2093L70.1695 58.2273ZM41.8506 60.524C40.6415 60.5799 39.6242 59.6185 39.5704 58.3688L38.7711 58.4032C38.8428 60.0689 40.2101 61.4006 41.8876 61.3231L41.8506 60.524ZM43.9482 58.2094C44.0015 59.4534 43.0425 60.473 41.852 60.5239L41.8862 61.3232C43.5195 61.2534 44.8196 59.8593 44.7474 58.1751L43.9482 58.2094ZM41.7436 56.0515C42.9408 56.0515 43.9214 56.9953 43.9479 58.201L44.7477 58.1834C44.7115 56.5372 43.3702 55.2515 41.7436 55.2515V56.0515ZM39.5708 58.386C39.5708 57.1327 40.5383 56.1076 41.7621 56.0511L41.7251 55.2519C40.0623 55.3288 38.7708 56.7174 38.7708 58.386H39.5708ZM54.7456 60.524C53.5364 60.5799 52.5191 59.6185 52.4653 58.3688L51.6661 58.4032C51.7378 60.0689 53.1051 61.4006 54.7825 61.3231L54.7456 60.524ZM56.8431 58.2094C56.8964 59.4534 55.9375 60.473 54.747 60.5239L54.7811 61.3232C56.4145 61.2534 57.7146 59.8593 57.6424 58.1751L56.8431 58.2094ZM54.6385 56.0515C55.8358 56.0515 56.8163 56.9953 56.8428 58.201L57.6426 58.1834C57.6064 56.5372 56.2651 55.2515 54.6385 55.2515V56.0515ZM52.4657 58.386C52.4657 57.1327 53.4332 56.1076 54.657 56.0511L54.6201 55.2519C52.9573 55.3288 51.6657 56.7174 51.6657 58.386H52.4657ZM67.5742 72.211C66.3539 72.1841 65.3612 71.1603 65.3612 69.9113H64.5612C64.5612 71.5842 65.8904 72.9741 67.5566 73.0108L67.5742 72.211ZM69.8324 69.9113C69.8324 71.1877 68.8146 72.2109 67.5654 72.2109V73.0109C69.2656 73.0109 70.6324 71.6203 70.6324 69.9113H69.8324ZM67.5654 67.615C68.8149 67.615 69.8324 68.6384 69.8324 69.9113H70.6324C70.6324 68.2052 69.2653 66.815 67.5654 66.815V67.615ZM67.534 67.615H67.5654V66.815H67.534V67.615ZM65.3611 69.9027C65.3345 68.6625 66.3204 67.6418 67.5428 67.6149L67.5252 66.815C65.8611 66.8517 64.5252 68.2382 64.5613 69.9199L65.3611 69.9027ZM51.6661 69.9287C51.7378 71.5974 53.1048 72.9294 54.7825 72.8519L54.7456 72.0527C53.5367 72.1086 52.5192 71.1476 52.4653 69.8944L51.6661 69.9287ZM54.6201 66.7807C52.9579 66.8575 51.6657 68.2423 51.6657 69.9116H52.4657C52.4657 68.6589 53.4326 67.6364 54.657 67.5798L54.6201 66.7807ZM57.6426 69.7154C57.6064 68.0663 56.2654 66.7803 54.6385 66.7803V67.5803C55.8355 67.5803 56.8163 68.5237 56.8428 69.733L57.6426 69.7154ZM54.7811 72.852C56.4141 72.7822 57.7146 71.3883 57.6424 69.707L56.8431 69.7414C56.8964 70.9819 55.9378 72.0018 54.747 72.0527L54.7811 72.852ZM38.739 69.9287C38.8107 71.5974 40.1777 72.9294 41.8555 72.8519L41.8185 72.0527C40.6097 72.1086 39.5921 71.1476 39.5383 69.8944L38.739 69.9287ZM41.693 66.7807C40.0308 66.8575 38.7387 68.2423 38.7387 69.9116H39.5387C39.5387 68.6589 40.5056 67.6364 41.73 67.5798L41.693 66.7807ZM44.7156 69.7154C44.6794 68.0663 43.3384 66.7803 41.7115 66.7803V67.5803C42.9084 67.5803 43.8892 68.5237 43.9158 69.733L44.7156 69.7154ZM41.8541 72.852C43.4871 72.7822 44.7875 71.3883 44.7153 69.707L43.9161 69.7414C43.9694 70.9819 43.0107 72.0018 41.8199 72.0527L41.8541 72.852ZM65.3924 58.3543C65.3924 57.1051 66.3539 56.1133 67.5741 56.0864L67.5565 55.2866C65.8901 55.3233 64.5924 56.6816 64.5924 58.3543H65.3924ZM65.3924 58.386V58.3543H64.5924V58.386H65.3924ZM67.6506 60.5237C66.4235 60.5507 65.4189 59.6096 65.3924 58.3774L64.5925 58.3947C64.6288 60.078 66.0087 61.36 67.6682 61.3235L67.6506 60.5237ZM69.7696 58.2358C69.7964 59.4864 68.8316 60.4998 67.6513 60.5237L67.6675 61.3235C69.311 61.2903 70.6053 59.89 70.5694 58.2187L69.7696 58.2358ZM67.5653 56.0865C68.7521 56.0865 69.7162 57.047 69.7699 58.2452L70.5691 58.2093C70.4972 56.6064 69.2023 55.2865 67.5653 55.2865V56.0865Z" fill="url(#paint5_linear_142_80)" mask="url(#path-7-inside-3_142_80)"/>
</g>
<g opacity="0.5" filter="url(#filter4_b_142_80)">
<path d="M29.0059 44.7677C29.0059 46.1169 30.0507 47.1836 31.4513 47.1836L76.7242 47.1836C78.1248 47.1836 79.1729 46.1169 79.1729 44.7677C79.1729 43.3872 78.1248 42.3517 76.7242 42.3517L31.4513 42.3517C30.0507 42.3517 29.0059 43.3872 29.0059 44.7677Z" fill="url(#paint6_linear_142_80)" fill-opacity="0.5"/>
</g>
<defs>
<filter id="filter0_f_142_80" x="0.378906" y="0.667572" width="79.3608" height="83.4518" filterUnits="userSpaceOnUse" color-interpolation-filters="sRGB">
<feFlood flood-opacity="0" result="BackgroundImageFix"/>
<feBlend mode="normal" in="SourceGraphic" in2="BackgroundImageFix" result="shape"/>
<feGaussianBlur stdDeviation="9.5" result="effect1_foregroundBlur_142_80"/>
</filter>
<filter id="filter1_b_142_80" x="1.08936" y="1.21277" width="107.167" height="108.787" filterUnits="userSpaceOnUse" color-interpolation-filters="sRGB">
<feFlood flood-opacity="0" result="BackgroundImageFix"/>
<feGaussianBlur in="BackgroundImage" stdDeviation="12"/>
<feComposite in2="SourceAlpha" operator="in" result="effect1_backgroundBlur_142_80"/>
<feBlend mode="normal" in="SourceGraphic" in2="effect1_backgroundBlur_142_80" result="shape"/>
</filter>
<filter id="filter2_bd_142_80" x="25.5215" y="6.48077" width="58.3022" height="44.5776" filterUnits="userSpaceOnUse" color-interpolation-filters="sRGB">
<feFlood flood-opacity="0" result="BackgroundImageFix"/>
<feGaussianBlur in="BackgroundImage" stdDeviation="7.5"/>
<feComposite in2="SourceAlpha" operator="in" result="effect1_backgroundBlur_142_80"/>
<feColorMatrix in="SourceAlpha" type="matrix" values="0 0 0 0 0 0 0 0 0 0 0 0 0 0 0 0 0 0 127 0" result="hardAlpha"/>
<feOffset dx="5" dy="5"/>
<feGaussianBlur stdDeviation="5"/>
<feColorMatrix type="matrix" values="0 0 0 0 1 0 0 0 0 0.537255 0 0 0 0 0.160784 0 0 0 0.2 0"/>
<feBlend mode="normal" in2="effect1_backgroundBlur_142_80" result="effect2_dropShadow_142_80"/>
<feBlend mode="normal" in="SourceGraphic" in2="effect2_dropShadow_142_80" result="shape"/>
</filter>
<filter id="filter3_bd_142_80" x="24.1387" y="40.6515" width="61.0938" height="46.9594" filterUnits="userSpaceOnUse" color-interpolation-filters="sRGB">
<feFlood flood-opacity="0" result="BackgroundImageFix"/>
<feGaussianBlur in="BackgroundImage" stdDeviation="7.5"/>
<feComposite in2="SourceAlpha" operator="in" result="effect1_backgroundBlur_142_80"/>
<feColorMatrix in="SourceAlpha" type="matrix" values="0 0 0 0 0 0 0 0 0 0 0 0 0 0 0 0 0 0 127 0" result="hardAlpha"/>
<feOffset dx="5" dy="5"/>
<feGaussianBlur stdDeviation="5"/>
<feColorMatrix type="matrix" values="0 0 0 0 1 0 0 0 0 0.52549 0 0 0 0 0.137255 0 0 0 0.5 0"/>
<feBlend mode="normal" in2="effect1_backgroundBlur_142_80" result="effect2_dropShadow_142_80"/>
<feBlend mode="normal" in="SourceGraphic" in2="effect2_dropShadow_142_80" result="shape"/>
</filter>
<filter id="filter4_b_142_80" x="14.0059" y="27.3517" width="80.167" height="34.8319" filterUnits="userSpaceOnUse" color-interpolation-filters="sRGB">
<feFlood flood-opacity="0" result="BackgroundImageFix"/>
<feGaussianBlur in="BackgroundImage" stdDeviation="7.5"/>
<feComposite in2="SourceAlpha" operator="in" result="effect1_backgroundBlur_142_80"/>
<feBlend mode="normal" in="SourceGraphic" in2="effect1_backgroundBlur_142_80" result="shape"/>
</filter>
<linearGradient id="paint0_linear_142_80" x1="53.5986" y1="16.0568" x2="30.8583" y2="70.2676" gradientUnits="userSpaceOnUse">
<stop stop-color="#FFB37F"/>
<stop offset="1" stop-color="#FF7B0D"/>
</linearGradient>
<linearGradient id="paint1_linear_142_80" x1="35.1894" y1="33.0616" x2="72.8968" y2="78.4758" gradientUnits="userSpaceOnUse">
<stop stop-color="white" stop-opacity="0.25"/>
<stop offset="1" stop-color="white" stop-opacity="0"/>
</linearGradient>
<linearGradient id="paint2_linear_142_80" x1="67.1172" y1="33.7962" x2="67.9671" y2="22.847" gradientUnits="userSpaceOnUse">
<stop stop-color="white"/>
<stop offset="1" stop-color="white" stop-opacity="0.2"/>
</linearGradient>
<linearGradient id="paint3_linear_142_80" x1="66.3394" y1="23.685" x2="77.847" y2="28.0012" gradientUnits="userSpaceOnUse">
<stop stop-color="white" stop-opacity="0.25"/>
<stop offset="1" stop-color="white" stop-opacity="0"/>
</linearGradient>
<linearGradient id="paint4_linear_142_80" x1="68.0278" y1="58.714" x2="15.6018" y2="55.2598" gradientUnits="userSpaceOnUse">
<stop stop-color="white"/>
<stop offset="1" stop-color="white" stop-opacity="0.2"/>
</linearGradient>
<linearGradient id="paint5_linear_142_80" x1="44.0883" y1="57.6273" x2="52.2522" y2="76.1655" gradientUnits="userSpaceOnUse">
<stop stop-color="white" stop-opacity="0.25"/>
<stop offset="1" stop-color="white" stop-opacity="0"/>
</linearGradient>
<linearGradient id="paint6_linear_142_80" x1="42.5461" y1="44.6995" x2="40.7474" y2="39.0657" gradientUnits="userSpaceOnUse">
<stop stop-color="white"/>
<stop offset="1" stop-color="white" stop-opacity="0.2"/>
</linearGradient>
</defs>
</svg>
