<svg width="104" height="82" viewBox="0 0 104 82" fill="none" xmlns="http://www.w3.org/2000/svg">
<path d="M57.051 51.2857C57.051 66.0765 45.0636 78.0612 30.2755 78.0612C15.4874 78.0612 3.5 66.0765 3.5 51.2857C3.5 36.5003 15.4874 24.5102 30.2755 24.5102C45.0636 24.5102 57.051 36.5003 57.051 51.2857Z" fill="url(#paint0_linear_84_1456)"/>
<g opacity="0.5" filter="url(#filter0_f_84_1456)">
<path d="M45.2826 51.2857C45.2826 59.5756 38.5639 66.2927 30.2756 66.2927C21.9872 66.2927 15.2686 59.5756 15.2686 51.2857C15.2686 42.9988 21.9872 36.2787 30.2756 36.2787C38.5639 36.2787 45.2826 42.9988 45.2826 51.2857Z" fill="#8237FF"/>
</g>
<g filter="url(#filter1_b_84_1456)">
<path d="M102.112 41C102.112 63.096 84.2043 81 62.1123 81C40.0203 81 22.1123 63.096 22.1123 41C22.1123 18.912 40.0203 1 62.1123 1C84.2043 1 102.112 18.912 102.112 41Z" fill="#BA90FF" fill-opacity="0.35"/>
<path d="M62.1123 81.5C84.4804 81.5 102.612 63.3722 102.612 41C102.612 18.6359 84.4805 0.5 62.1123 0.5C39.7441 0.5 21.6123 18.6359 21.6123 41C21.6123 63.3722 39.7442 81.5 62.1123 81.5Z" stroke="url(#paint1_linear_84_1456)" stroke-linecap="round" stroke-linejoin="round"/>
</g>
<g filter="url(#filter2_bd_84_1456)">
<mask id="path-5-inside-1_84_1456" fill="white">
<path fill-rule="evenodd" clip-rule="evenodd" d="M44.1958 36.215C41.5518 36.215 39.4038 38.363 39.4038 40.999C39.4038 43.639 41.5518 45.791 44.1958 45.791C46.8398 45.791 48.9878 43.639 48.9878 40.999C48.9878 38.363 46.8398 36.215 44.1958 36.215ZM62.1126 36.215C59.4686 36.215 57.3206 38.363 57.3206 40.999C57.3206 43.639 59.4686 45.791 62.1126 45.791C64.7566 45.791 66.9046 43.639 66.9046 40.999C66.9046 38.363 64.7566 36.215 62.1126 36.215ZM75.2374 40.999C75.2374 38.363 77.3854 36.215 80.0294 36.215C82.6734 36.215 84.8213 38.363 84.8213 40.999C84.8213 43.639 82.6734 45.791 80.0294 45.791C77.3854 45.791 75.2374 43.639 75.2374 40.999Z"/>
</mask>
<path fill-rule="evenodd" clip-rule="evenodd" d="M44.1958 36.215C41.5518 36.215 39.4038 38.363 39.4038 40.999C39.4038 43.639 41.5518 45.791 44.1958 45.791C46.8398 45.791 48.9878 43.639 48.9878 40.999C48.9878 38.363 46.8398 36.215 44.1958 36.215ZM62.1126 36.215C59.4686 36.215 57.3206 38.363 57.3206 40.999C57.3206 43.639 59.4686 45.791 62.1126 45.791C64.7566 45.791 66.9046 43.639 66.9046 40.999C66.9046 38.363 64.7566 36.215 62.1126 36.215ZM75.2374 40.999C75.2374 38.363 77.3854 36.215 80.0294 36.215C82.6734 36.215 84.8213 38.363 84.8213 40.999C84.8213 43.639 82.6734 45.791 80.0294 45.791C77.3854 45.791 75.2374 43.639 75.2374 40.999Z" fill="url(#paint2_linear_84_1456)"/>
<path d="M39.8038 40.999C39.8038 38.5844 41.7723 36.615 44.1958 36.615V35.815C41.3313 35.815 39.0038 38.1417 39.0038 40.999H39.8038ZM44.1958 45.391C41.7729 45.391 39.8038 43.4183 39.8038 40.999H39.0038C39.0038 43.8597 41.3307 46.191 44.1958 46.191V45.391ZM48.5878 40.999C48.5878 43.4183 46.6187 45.391 44.1958 45.391V46.191C47.0609 46.191 49.3878 43.8597 49.3878 40.999H48.5878ZM44.1958 36.615C46.6193 36.615 48.5878 38.5844 48.5878 40.999H49.3878C49.3878 38.1417 47.0603 35.815 44.1958 35.815V36.615ZM57.7206 40.999C57.7206 38.5844 59.6891 36.615 62.1126 36.615V35.815C59.2481 35.815 56.9206 38.1417 56.9206 40.999H57.7206ZM62.1126 45.391C59.6897 45.391 57.7206 43.4183 57.7206 40.999H56.9206C56.9206 43.8597 59.2474 46.191 62.1126 46.191V45.391ZM66.5046 40.999C66.5046 43.4183 64.5354 45.391 62.1126 45.391V46.191C64.9777 46.191 67.3046 43.8597 67.3046 40.999H66.5046ZM62.1126 36.615C64.5361 36.615 66.5046 38.5844 66.5046 40.999H67.3046C67.3046 38.1417 64.9771 35.815 62.1126 35.815V36.615ZM80.0294 35.815C77.1649 35.815 74.8374 38.1417 74.8374 40.999H75.6374C75.6374 38.5844 77.6058 36.615 80.0294 36.615V35.815ZM85.2213 40.999C85.2213 38.1417 82.8938 35.815 80.0294 35.815V36.615C82.4529 36.615 84.4213 38.5844 84.4213 40.999H85.2213ZM80.0294 46.191C82.8945 46.191 85.2213 43.8597 85.2213 40.999H84.4213C84.4213 43.4183 82.4522 45.391 80.0294 45.391V46.191ZM74.8374 40.999C74.8374 43.8597 77.1642 46.191 80.0294 46.191V45.391C77.6065 45.391 75.6374 43.4183 75.6374 40.999H74.8374Z" fill="url(#paint3_linear_84_1456)" mask="url(#path-5-inside-1_84_1456)"/>
</g>
<defs>
<filter id="filter0_f_84_1456" x="0.268555" y="21.2787" width="60.0142" height="60.014" filterUnits="userSpaceOnUse" color-interpolation-filters="sRGB">
<feFlood flood-opacity="0" result="BackgroundImageFix"/>
<feBlend mode="normal" in="SourceGraphic" in2="BackgroundImageFix" result="shape"/>
<feGaussianBlur stdDeviation="7.5" result="effect1_foregroundBlur_84_1456"/>
</filter>
<filter id="filter1_b_84_1456" x="-2.8877" y="-24" width="130" height="130" filterUnits="userSpaceOnUse" color-interpolation-filters="sRGB">
<feFlood flood-opacity="0" result="BackgroundImageFix"/>
<feGaussianBlur in="BackgroundImage" stdDeviation="12"/>
<feComposite in2="SourceAlpha" operator="in" result="effect1_backgroundBlur_84_1456"/>
<feBlend mode="normal" in="SourceGraphic" in2="effect1_backgroundBlur_84_1456" result="shape"/>
</filter>
<filter id="filter2_bd_84_1456" x="24.4038" y="21.215" width="75.4175" height="39.576" filterUnits="userSpaceOnUse" color-interpolation-filters="sRGB">
<feFlood flood-opacity="0" result="BackgroundImageFix"/>
<feGaussianBlur in="BackgroundImage" stdDeviation="7.5"/>
<feComposite in2="SourceAlpha" operator="in" result="effect1_backgroundBlur_84_1456"/>
<feColorMatrix in="SourceAlpha" type="matrix" values="0 0 0 0 0 0 0 0 0 0 0 0 0 0 0 0 0 0 127 0" result="hardAlpha"/>
<feOffset dx="5" dy="5"/>
<feGaussianBlur stdDeviation="5"/>
<feColorMatrix type="matrix" values="0 0 0 0 0.577356 0 0 0 0 0.359375 0 0 0 0 0.9375 0 0 0 0.5 0"/>
<feBlend mode="normal" in2="effect1_backgroundBlur_84_1456" result="effect2_dropShadow_84_1456"/>
<feBlend mode="normal" in="SourceGraphic" in2="effect2_dropShadow_84_1456" result="shape"/>
</filter>
<linearGradient id="paint0_linear_84_1456" x1="30.2755" y1="24.5102" x2="30.2755" y2="78.0612" gradientUnits="userSpaceOnUse">
<stop stop-color="#BC94FF"/>
<stop offset="1" stop-color="#9F66FF"/>
</linearGradient>
<linearGradient id="paint1_linear_84_1456" x1="34.847" y1="10.3201" x2="85.8785" y2="73.5238" gradientUnits="userSpaceOnUse">
<stop stop-color="white" stop-opacity="0.25"/>
<stop offset="1" stop-color="white" stop-opacity="0"/>
</linearGradient>
<linearGradient id="paint2_linear_84_1456" x1="81.6013" y1="37.9443" x2="32.1394" y2="45.5929" gradientUnits="userSpaceOnUse">
<stop stop-color="white"/>
<stop offset="1" stop-color="white" stop-opacity="0.2"/>
</linearGradient>
<linearGradient id="paint3_linear_84_1456" x1="46.6335" y1="37.3306" x2="48.7012" y2="49.4762" gradientUnits="userSpaceOnUse">
<stop stop-color="white" stop-opacity="0.25"/>
<stop offset="1" stop-color="white" stop-opacity="0"/>
</linearGradient>
</defs>
</svg>
