<?xml version="1.0" encoding="UTF-8" standalone="no"?>
<svg
   width="30"
   height="30"
   viewBox="0 0 30 30"
   fill="none"
   version="1.1"
   id="svg6"
   sodipodi:docname="check-o.svg"
   inkscape:version="1.1 (c4e8f9e, 2021-05-24)"
   xmlns:inkscape="http://www.inkscape.org/namespaces/inkscape"
   xmlns:sodipodi="http://sodipodi.sourceforge.net/DTD/sodipodi-0.dtd"
   xmlns="http://www.w3.org/2000/svg"
   xmlns:svg="http://www.w3.org/2000/svg">
  <defs
     id="defs10" />
  <sodipodi:namedview
     id="namedview8"
     pagecolor="#505050"
     bordercolor="#eeeeee"
     borderopacity="1"
     inkscape:pageshadow="0"
     inkscape:pageopacity="0"
     inkscape:pagecheckerboard="0"
     showgrid="false"
     inkscape:zoom="20.833333"
     inkscape:cx="15.024"
     inkscape:cy="15"
     inkscape:window-width="1389"
     inkscape:window-height="847"
     inkscape:window-x="51"
     inkscape:window-y="25"
     inkscape:window-maximized="0"
     inkscape:current-layer="svg6" />
  <g
     id="g33">
    <g
       id="g112">
      <path
         style="color:#000000;fill:#000000;-inkscape-stroke:none"
         d="m 12.6036,20.8823 -5.78542,-5.7854 1.92848,-1.9285 3.85694,3.857 7.7139,-7.71394 1.9285,1.92844 z"
         id="path2" />
      <path
         style="color:#000000;clip-rule:evenodd;fill:#000000;fill-rule:evenodd;-inkscape-stroke:none"
         d="M 0,15 C 0,6.71573 6.71573,0 15,0 23.2843,0 30,6.71573 30,15 30,23.2843 23.2843,30 15,30 6.71573,30 0,23.2843 0,15 Z M 15,27.2727 C 8.22196,27.2727 2.72727,21.778 2.72727,15 2.72727,8.22196 8.22196,2.72727 15,2.72727 21.778,2.72727 27.2727,8.22196 27.2727,15 27.2727,21.778 21.778,27.2727 15,27.2727 Z"
         id="path4" />
    </g>
  </g>
</svg>
