<svg width="48" height="48" viewBox="0 0 48 48" fill="none" xmlns="http://www.w3.org/2000/svg">
<path d="M20.2724 33.1503L11.2728 24.1507L14.2727 21.1509L20.2724 27.1506L32.2717 15.1512L35.2716 18.151L20.2724 33.1503Z" fill="#3ABE39"/>
<path fill-rule="evenodd" clip-rule="evenodd" d="M0.666748 24C0.666748 11.1134 11.1134 0.666687 24.0001 0.666687C36.8867 0.666687 47.3334 11.1134 47.3334 24C47.3334 36.8867 36.8867 47.3334 24.0001 47.3334C11.1134 47.3334 0.666748 36.8867 0.666748 24ZM24.0001 43.0909C13.4565 43.0909 4.90917 34.5436 4.90917 24C4.90917 13.4564 13.4565 4.90911 24.0001 4.90911C34.5437 4.90911 43.091 13.4564 43.091 24C43.091 34.5436 34.5437 43.0909 24.0001 43.0909Z" fill="#3ABE39"/>
</svg>
