<svg width="16" height="16" viewBox="0 0 16 16" fill="none" xmlns="http://www.w3.org/2000/svg">
<path d="M2.22526 0.81096C1.83474 0.420435 1.20158 0.420435 0.811051 0.81096C0.420527 1.20148 0.420527 1.83465 0.811051 2.22517L6.58579 7.99991L0.811111 13.7746C0.420587 14.1651 0.420587 14.7983 0.811111 15.1888C1.20164 15.5793 1.8348 15.5793 2.22532 15.1888L8 9.41412L13.7747 15.1888C14.1652 15.5793 14.7984 15.5793 15.1889 15.1888C15.5794 14.7983 15.5794 14.1651 15.1889 13.7746L9.41421 7.99991L15.1889 2.22517C15.5795 1.83465 15.5795 1.20148 15.1889 0.81096C14.7984 0.420435 14.1653 0.420435 13.7747 0.81096L8 6.58569L2.22526 0.81096Z" fill="white"/>
</svg>
