<svg width="19" height="21" viewBox="0 0 19 21" fill="none" xmlns="http://www.w3.org/2000/svg">
<path fill-rule="evenodd" clip-rule="evenodd" d="M7.69048 4.97619L0 8.14286L0.452381 9.5L5.88095 8.14286L4.07143 14.9286H6.33333L5.88095 19.4524L2.71429 19.9048V20.8095H7.2381L8.59524 14.9286H9.5V0H8.14286C7.2381 0.603175 5.60952 2.2619 6.33333 4.07143H6.78571L7.69048 4.97619ZM11.3096 4.97619L19 8.14286L18.5477 9.5L13.1191 8.14286L14.9286 14.9286H12.6667L13.1191 19.4524L16.2858 19.9048V20.8095H11.7619L10.4048 14.9286H9.50004V0H10.8572C11.7619 0.603175 13.3905 2.2619 12.6667 4.07143H12.2143L11.3096 4.97619Z" fill="white"/>
</svg>
