<svg width="18" height="16" viewBox="0 0 18 16" fill="none" xmlns="http://www.w3.org/2000/svg">
<path d="M17.3337 6.41666C17.417 5.99999 17.0837 5.49999 16.667 5.49999L11.917 4.83332L9.75033 0.499989C9.66699 0.333323 9.58366 0.249989 9.41699 0.166656C9.00033 -0.083344 8.50033 0.0833227 8.25033 0.499989L6.16699 4.83332L1.41699 5.49999C1.16699 5.49999 1.00033 5.58332 0.916992 5.74999C0.583659 6.08332 0.583659 6.58332 0.916992 6.91665L4.33366 10.25L3.50033 15C3.50033 15.1667 3.50033 15.3333 3.58366 15.5C3.83366 15.9167 4.33366 16.0833 4.75033 15.8333L9.00033 13.5833L13.2503 15.8333C13.3337 15.9167 13.5003 15.9167 13.667 15.9167C13.7503 15.9167 13.7503 15.9167 13.8337 15.9167C14.2503 15.8333 14.5837 15.4167 14.5003 14.9167L13.667 10.1667L17.0837 6.83332C17.2503 6.74999 17.3337 6.58332 17.3337 6.41666Z" fill="#FFCF34"/>
</svg>
